static_grf.mot
version=1
nRows=22
nColumns 19
inDegrees=yes
endheader
time	1_ground_force_vx	1_ground_force_vy	1_ground_force_vz	1_ground_force_px	1_ground_force_py	1_ground_force_pz	1_ground_torque_x	1_ground_torque_y	1_ground_torque_z	2_ground_force_vx	2_ground_force_vy	2_ground_force_vz	2_ground_force_px	2_ground_force_py	2_ground_force_pz	2_ground_torque_x	2_ground_torque_y	2_ground_torque_z
            0.407500	           -2.723242	          259.611351	           -5.712866	           -0.331060	            0.006425	           -0.456648	           -0.010863	            1.035563	           -0.022788	            1.497889	          299.777199	            8.248596	           -0.328781	            0.005116	           -0.647096	           -0.001662	           -0.332573	           -0.009151
            0.408000	           -2.860450	          261.593097	           -5.428886	           -0.330136	            0.006417	           -0.454643	           -0.010419	            0.952813	           -0.019774	            1.686474	          299.410704	            7.918706	           -0.329025	            0.005115	           -0.647118	           -0.002007	           -0.356326	           -0.009424
            0.408500	           -2.722541	          258.889305	           -5.486678	           -0.331264	            0.006426	           -0.456736	           -0.010764	            1.023550	           -0.021692	            1.733385	          299.410371	            8.059470	           -0.328897	            0.005113	           -0.646366	           -0.002145	           -0.370460	           -0.009972
            0.409000	           -2.677432	          259.791656	           -5.712206	           -0.330548	            0.006424	           -0.456437	           -0.010928	            1.060362	           -0.023315	            1.637794	          299.961679	            8.296122	           -0.328969	            0.005116	           -0.647212	           -0.002041	           -0.373819	           -0.010339
            0.409500	           -2.861146	          259.792210	           -5.849319	           -0.330866	            0.006424	           -0.456389	           -0.011647	            1.057568	           -0.023812	            1.641679	          298.857611	            8.057539	           -0.329141	            0.005113	           -0.646521	           -0.001842	           -0.335297	           -0.009040
            0.410000	           -2.814979	          260.512495	           -5.662917	           -0.330523	            0.006422	           -0.455871	           -0.010925	            1.011087	           -0.021979	            1.546130	          299.408523	            8.388046	           -0.329026	            0.005115	           -0.646929	           -0.001649	           -0.319327	           -0.008946
            0.410500	           -3.044452	          259.431643	           -5.850410	           -0.331043	            0.006426	           -0.456884	           -0.011214	            0.955637	           -0.021550	            1.637753	          299.962014	            8.202265	           -0.328909	            0.005116	           -0.647211	           -0.001886	           -0.345408	           -0.009445
            0.411000	           -2.814880	          259.971668	           -5.665236	           -0.330795	            0.006424	           -0.456435	           -0.011251	            1.039109	           -0.022644	            1.499198	          299.409024	            8.200354	           -0.329089	            0.005115	           -0.646928	           -0.001608	           -0.321222	           -0.008798
            0.411500	           -2.493848	          259.250667	           -5.669125	           -0.331297	            0.006426	           -0.456847	           -0.010641	            1.106212	           -0.024190	            1.736105	          298.673307	            8.197626	           -0.329324	            0.005112	           -0.646470	           -0.002139	           -0.367919	           -0.010098
            0.412000	           -2.906129	          260.691730	           -5.432637	           -0.330475	            0.006422	           -0.455768	           -0.011127	            0.998127	           -0.020800	            1.496580	          300.145313	            8.296838	           -0.328534	            0.005118	           -0.647388	           -0.001810	           -0.362924	           -0.010032
            0.412500	           -2.906827	          260.152339	           -5.755948	           -0.330819	            0.006426	           -0.456743	           -0.011186	            1.001087	           -0.022149	            1.640391	          299.225558	            8.152709	           -0.328894	            0.005115	           -0.646878	           -0.001977	           -0.360574	           -0.009824
            0.413000	           -2.814895	          259.431098	           -5.713411	           -0.331217	            0.006425	           -0.456644	           -0.011047	            1.018138	           -0.022422	            1.920703	          299.411718	            7.871678	           -0.328959	            0.005114	           -0.646682	           -0.002542	           -0.396335	           -0.010420
            0.413500	           -2.814584	          258.349307	           -5.672193	           -0.331629	            0.006430	           -0.457698	           -0.011143	            1.022772	           -0.022455	            1.545280	          299.594170	            7.966350	           -0.328652	            0.005117	           -0.647107	           -0.001762	           -0.341565	           -0.009082
            0.414000	           -2.722805	          260.331430	           -5.480494	           -0.330789	            0.006422	           -0.455981	           -0.011177	            1.068660	           -0.022497	            1.547294	          299.041581	            8.011307	           -0.328704	            0.005115	           -0.646699	           -0.001700	           -0.328622	           -0.008804
            0.414500	           -3.089743	          260.151518	           -5.572069	           -0.330708	            0.006423	           -0.456065	           -0.011583	            0.975261	           -0.020889	            1.364547	          297.751858	            8.006788	           -0.329314	            0.005110	           -0.645825	           -0.001375	           -0.299956	           -0.008066
            0.415000	           -2.722574	          259.069601	           -5.485905	           -0.331415	            0.006426	           -0.456812	           -0.010668	            1.015097	           -0.021495	            1.547377	          299.040911	            8.199020	           -0.329018	            0.005114	           -0.646825	           -0.001755	           -0.339184	           -0.009300
            0.415500	           -2.631571	          259.070799	           -5.761268	           -0.331391	            0.006426	           -0.456858	           -0.010770	            1.060273	           -0.023579	            1.968964	          299.042936	            8.058056	           -0.329073	            0.005114	           -0.646642	           -0.002980	           -0.452522	           -0.012194
            0.416000	           -2.998366	          259.971829	           -5.710637	           -0.330827	            0.006425	           -0.456661	           -0.011817	            1.024628	           -0.022507	            1.685144	          299.779047	            7.920020	           -0.328464	            0.005117	           -0.647035	           -0.002142	           -0.381071	           -0.010068
            0.416500	           -2.631427	          260.151803	           -5.619063	           -0.330912	            0.006423	           -0.456069	           -0.010763	            1.064112	           -0.022984	            1.499115	          299.409693	            8.012641	           -0.328584	            0.005116	           -0.646930	           -0.001784	           -0.356241	           -0.009534
            0.417000	           -2.768729	          260.151383	           -5.527009	           -0.330511	            0.006424	           -0.456415	           -0.010503	            0.986914	           -0.020967	            1.643755	          298.304519	            8.243280	           -0.329193	            0.005111	           -0.645986	           -0.001854	           -0.336413	           -0.009296
            0.417500	           -2.860202	          259.610341	           -5.483245	           -0.331089	            0.006425	           -0.456684	           -0.011163	            1.013257	           -0.021401	            1.639706	          299.409866	            8.106438	           -0.328836	            0.005113	           -0.646365	           -0.001852	           -0.338123	           -0.009155
            0.418000	           -2.630742	          258.889126	           -5.441050	           -0.331535	            0.006427	           -0.457092	           -0.011022	            1.084663	           -0.022796	            1.640247	          299.226729	            7.824212	           -0.329026	            0.005114	           -0.646814	           -0.001653	           -0.301532	           -0.007884
